<svg width="800.0000000000001" height="600" xmlns="http://www.w3.org/2000/svg" style="vector-effect: non-scaling-stroke;" stroke="null">

 <g stroke="null">
  <title stroke="null">Layer 1</title>
  <path stroke="#000" id="svg_3" d="m105.48008,301.19172c-0.38873,-0.28901 -0.52772,-0.47184 -0.52885,-0.69565c-0.00103,-0.20403 0.17055,-0.40095 0.34835,-0.39982c0.08879,0.00057 0.27924,0.07566 0.34668,0.1367c0.03398,0.03075 0.05008,0.02772 0.12573,-0.02369c0.2059,-0.13991 0.40696,-0.14285 0.53718,-0.00785c0.20811,0.21576 0.17023,0.47342 -0.10892,0.74069c-0.14841,0.14209 -0.4725,0.39417 -0.50678,0.39417c-0.01043,0 -0.10646,-0.06505 -0.2134,-0.14456l0,0z" fill="#7AD6CA"/>
  <path transform="rotate(37.9625 46.1358 -42.0772)" stroke="#000" id="svg_8" d="m-189.86534,-361.50168l236.00113,0l0,0c130.33984,0 236.00113,143.01121 236.00113,319.42448c0,176.41329 -105.66129,319.42447 -236.00113,319.42447l-236.00113,0l0,-638.84895z" stroke-width="0" fill="#426373"/>
  <path transform="rotate(-122.719 503.148 665.144)" stroke="#000" id="svg_10" d="m309.97226,259.13367l193.17523,0l0,0c106.68775,0 193.17524,181.77714 193.17524,406.01061c0,224.23349 -86.48749,406.01059 -193.17524,406.01059l-193.17523,0l0,-812.0212z" stroke-width="0" fill="#426373"/>
  <path transform="rotate(-122.719 512.481 669.144)" stroke="#000" id="svg_7" d="m319.30564,263.13369l193.17523,0l0,0c106.68775,0 193.17523,181.77714 193.17523,406.01061c0,224.23349 -86.48749,406.0106 -193.17523,406.0106l-193.17523,0l0,-812.0212z" stroke-width="0" fill="#5B9BA2"/>
  <path transform="rotate(41.6609 43.4691 -46.0772)" stroke="#000" id="svg_12" d="m-192.53202,-365.5017l236.00113,0l0,0c130.33984,0 236.00113,143.01121 236.00113,319.42448c0,176.41329 -105.66129,319.42447 -236.00113,319.42447l-236.00113,0l0,-638.84895z" stroke-width="0" fill="#5B9BA2"/>
 </g>
</svg>